<?xml version="1.0" encoding="UTF-8" standalone="no"?>
<!-- Created with Inkscape (http://www.inkscape.org/) -->

<svg
   width="74.554131mm"
   height="102.04264mm"
   viewBox="0 0 74.554131 102.04264"
   version="1.1"
   id="svg1"
   inkscape:version="1.3.2 (091e20e, 2023-11-25, custom)"
   sodipodi:docname="flokkur fólksins 2024.svg"
   xmlns:inkscape="http://www.inkscape.org/namespaces/inkscape"
   xmlns:sodipodi="http://sodipodi.sourceforge.net/DTD/sodipodi-0.dtd"
   xmlns="http://www.w3.org/2000/svg"
   xmlns:svg="http://www.w3.org/2000/svg">
  <sodipodi:namedview
     id="namedview1"
     pagecolor="#ffffff"
     bordercolor="#000000"
     borderopacity="0.25"
     inkscape:showpageshadow="2"
     inkscape:pageopacity="0.0"
     inkscape:pagecheckerboard="0"
     inkscape:deskcolor="#d1d1d1"
     inkscape:document-units="mm"
     inkscape:zoom="0.65834035"
     inkscape:cx="189.11191"
     inkscape:cy="391.13507"
     inkscape:window-width="1920"
     inkscape:window-height="974"
     inkscape:window-x="-11"
     inkscape:window-y="-11"
     inkscape:window-maximized="1"
     inkscape:current-layer="layer1" />
  <defs
     id="defs1" />
  <g
     inkscape:label="Lag 1"
     inkscape:groupmode="layer"
     id="layer1"
     transform="translate(-55.052791,-45.096206)">
    <path
       style="fill:#ffc93d;fill-opacity:1;stroke-width:3"
       d="M 89.358976,146.2612 C 78.49429,143.2324 70.723498,134.90701 67.814845,123.17944 c -2.131728,-8.59503 -5.298312,-13.3743 -9.912366,-14.96055 l -2.849688,-0.97969 3.072501,-3.22986 c 6.14553,-6.460294 10.342902,-5.318854 17.351727,4.71871 4.317177,6.18273 13.616382,16.25409 14.339898,15.53055 0.1779,-0.1779 -0.25074,-1.47444 -0.952545,-2.88123 -1.842909,-3.6942 -2.259753,-8.2854 -1.121391,-12.35124 0.718341,-2.56567 3.105051,-6.00019 8.636886,-12.428624 4.204333,-4.8858 8.715803,-10.18503 10.025493,-11.77608 4.12249,-5.00817 16.53615,-19.3506 19.57026,-22.611 l 2.9094,-3.12639 0.5448,3.63288 c 0.74415,4.96245 -0.91377,11.78307 -3.90342,16.0584 -1.34877,1.92876 -7.38864,9.255 -13.42195,16.28052 -10.84761,12.631504 -12.357359,15.305954 -8.86598,15.705494 1.1641,0.1332 4.6057,-3.38182 13.08876,-13.368014 l 11.50938,-13.54878 0.2553,4.2399 c 0.1404,2.33193 -0.1179,5.4996 -0.57408,7.03926 -0.51522,1.73883 -5.34405,8.053594 -12.74644,16.668764 -7.21424,8.39613 -11.92115,14.53581 -11.92748,15.55812 -0.006,0.92883 0.5803,2.17896 1.30234,2.77812 1.73651,1.44099 9.93676,1.20768 14.40242,-0.40977 l 3.41211,-1.23582 -1.8246,3.25977 c -6.62828,11.8419 -19.16468,17.75559 -30.77724,14.51832 z m -9.990843,-41.83219 c -3.142677,-3.72702 -4.316268,-7.067704 -4.313178,-12.277624 0.003,-4.9926 0.485028,-6.34143 10.292814,-28.79892 3.145863,-7.2033 6.105303,-14.25774 6.576534,-15.67659 0.471231,-1.41882 1.105464,-2.57967 1.409406,-2.57967 0.303942,0 1.562763,1.45764 2.79738,3.23919 2.579031,3.72153 3.508767,10.68795 2.019429,15.13137 -0.491067,1.46511 -4.276644,7.84302 -8.41239,14.1732 -4.135749,6.33015 -7.52463,12.14565 -7.530846,12.92334 -0.0063,0.77769 0.580767,1.64118 1.304406,1.91886 1.669512,0.64065 3.02568,-1.00278 10.564011,-12.80175 6.383591,-9.99156 7.002671,-10.21869 7.114491,-2.61027 0.0803,5.46456 -1.249479,7.94418 -9.032136,16.84167 -3.818613,4.36563 -7.448439,9.098374 -8.06628,10.517194 -0.617841,1.41885 -1.443987,2.5797 -1.835883,2.5797 -0.391899,0 -1.691388,-1.16085 -2.887758,-2.5797 z"
       id="path7"
       sodipodi:nodetypes="ssscsssssssscssssscsssssscsssssssssssssssssss" />
  </g>
</svg>
